<?xml version="1.0" standalone="no"?>
<!DOCTYPE svg PUBLIC "-//W3C//DTD SVG 20010904//EN"
 "http://www.w3.org/TR/2001/REC-SVG-20010904/DTD/svg10.dtd">
<svg version="1.0" xmlns="http://www.w3.org/2000/svg"
 width="590.000000pt" height="590.000000pt" viewBox="0 0 590.000000 590.000000"
 preserveAspectRatio="xMidYMid meet">
<metadata>
Created by potrace 1.14, written by Peter Selinger 2001-2017
</metadata>
<g transform="translate(0.000000,590.000000) scale(0.100000,-0.100000)"
fill="#000000" stroke="none">
<path d="M1890 4943 c-14 -2 -74 -11 -135 -19 -89 -12 -211 -38 -325 -68 -90
-24 -254 -91 -366 -151 -432 -227 -762 -609 -932 -1080 -56 -154 -82 -263
-112 -465 -9 -68 -6 -456 4 -500 4 -14 9 -45 12 -70 18 -145 92 -378 173 -545
223 -458 596 -785 1091 -957 47 -17 92 -32 100 -34 8 -2 40 -10 70 -18 49 -14
87 -22 195 -41 17 -2 40 -7 52 -9 100 -20 504 -28 673 -13 47 4 150 21 230 37
612 123 1082 462 1359 981 44 84 128 279 136 319 2 8 13 50 25 92 24 88 22 81
44 208 17 102 24 181 25 272 l1 56 808 1 c444 0 824 0 845 0 26 1 37 5 37 16
0 13 -101 15 -845 15 l-845 0 -1 33 c-1 76 -21 237 -44 362 -33 179 -158 486
-268 657 -332 519 -840 829 -1500 914 -44 6 -476 12 -507 7z m470 -48 c342
-53 604 -161 835 -344 63 -50 196 -178 235 -227 165 -206 268 -393 351 -645
26 -80 50 -157 53 -170 41 -201 51 -272 62 -441 l6 -98 -896 0 c-790 0 -896
-2 -896 -15 0 -12 13 -15 58 -16 31 0 435 0 896 0 l839 -1 -6 -131 c-4 -73 -9
-141 -11 -152 -2 -11 -7 -42 -10 -69 -4 -28 -14 -82 -22 -120 -9 -39 -17 -80
-20 -92 -22 -111 -106 -332 -176 -464 -239 -449 -603 -737 -1078 -853 -181
-45 -252 -52 -495 -51 -306 1 -513 44 -760 159 -186 86 -303 170 -465 334
-198 200 -338 435 -434 731 -51 156 -77 288 -102 510 -7 63 -7 326 0 385 2 22
8 69 11 105 8 71 8 70 31 185 61 310 192 608 368 840 66 87 202 228 281 292
158 128 363 232 574 293 74 22 90 26 146 35 17 3 44 7 60 10 17 4 55 9 85 12
30 3 56 7 58 8 7 6 378 -3 422 -10z"/>
</g>
</svg>
